<svg xmlns="http://www.w3.org/2000/svg" viewBox="0 0 128 128">
  <path fill="#F7A80D" d="M38.089 77.466l-11.4 4.896 10.559 4.514 12.241-4.514-11.4-4.896zm-17.138 6.12l-.382 22.034 16.679 7.345V90.089l-16.297-6.503zm34.276 0l-15.073 5.739V110.9l15.073-6.121V83.586zm17.979-68.551L61.73 19.931l10.635 4.515 12.241-4.515-11.4-4.896zm-15.914 6.503v22.034l14.231 4.132.459-20.046-14.69-6.12zm31.828 1.224L75.654 28.5v21.652l13.466-6.121V22.762zM19.306 46.047L6.268 42.346l-.382 19.741 13.42 3.7V46.047zm41.142-5.464l-13.083 5.654v20.588l13.083-3.855V40.583zm31.83 3.317l-13.466 5.654v19.741l13.466-4.237V43.9zM19.306 67.02L6.268 64.236l-.382 19.741 13.42 2.241V67.02zm41.142-4.896l-13.083 5.321v20.045l13.083-2.241V62.124zm31.83 2.241l-13.466 5.739v19.741l13.466-3.086V64.365zM19.306 87.993L6.268 86.769l-.382 19.741 13.42.764v-19.281zm41.142-3.855l-13.083 4.132v20.045l13.083-.764V84.138zm31.83 1.224l-13.466 4.896v19.364l13.466-1.528V85.362z"/>
</svg>
