<svg xmlns="http://www.w3.org/2000/svg" viewBox="0 0 128 128">
  <g fill="#5881D8">
    <path d="M64 3.987c-33.636 0-60.013 26.377-60.013 60.013S30.364 124.013 64 124.013 124.013 97.636 124.013 64 97.636 3.987 64 3.987zm0 5.333c30.213 0 54.68 24.467 54.68 54.68S94.213 118.68 64 118.68 9.32 94.213 9.32 64 33.787 9.32 64 9.32z"/>
    <path d="M64 12.493c-28.45 0-51.507 23.057-51.507 51.507S35.55 115.507 64 115.507 115.507 92.45 115.507 64 92.45 12.493 64 12.493zm0 5.333c25.527 0 46.173 20.647 46.173 46.173S89.527 110.173 64 110.173 17.827 89.527 17.827 64 38.473 17.827 64 17.827z"/>
    <path d="M64 22.16c-23.113 0-41.84 18.727-41.84 41.84S40.887 105.84 64 105.84 105.84 87.113 105.84 64 87.113 22.16 64 22.16zm0 5.333c20.19 0 36.507 16.317 36.507 36.507S84.19 100.507 64 100.507 27.493 84.19 27.493 64 43.81 27.493 64 27.493z"/>
    <path d="M64 31.84c-17.76 0-32.16 14.4-32.16 32.16S46.24 96.16 64 96.16 96.16 81.76 96.16 64 81.76 31.84 64 31.84zm0 5.333c14.837 0 26.827 11.99 26.827 26.827S78.837 90.827 64 90.827 37.173 78.837 37.173 64 49.163 37.173 64 37.173z"/>
    <path d="M64 41.493c-12.407 0-22.507 10.1-22.507 22.507S51.593 86.507 64 86.507 86.507 76.407 86.507 64 76.407 41.493 64 41.493zm0 5.333c9.483 0 17.173 7.69 17.173 17.173S73.483 81.173 64 81.173 46.827 73.483 46.827 64 54.517 46.827 64 46.827z"/>
    <path d="M64 51.173c-7.07 0-12.827 5.757-12.827 12.827S56.93 76.827 64 76.827 76.827 71.07 76.827 64 71.07 51.173 64 51.173zm0 5.333c4.147 0 7.493 3.347 7.493 7.493S68.147 71.493 64 71.493 56.507 68.147 56.507 64s3.347-7.493 7.493-7.493z"/>
    <path d="M64 60.827c-1.75 0-3.173 1.423-3.173 3.173S62.25 67.173 64 67.173 67.173 65.75 67.173 64 65.75 60.827 64 60.827z"/>
  </g>
</svg>
