<svg xmlns="http://www.w3.org/2000/svg" viewBox="0 0 128 128">
  <path fill="#E44D26" d="M19.037 113.876L9.032 1.661h109.936l-10.016 112.198-45.019 12.48z"/>
  <path fill="#F16529" d="M64 116.8l36.378-10.086 8.559-95.878H64z"/>
  <path fill="#EBEBEB" d="M64 52.455H45.788L44.53 38.361H64V24.599H29.489l.33 3.692 3.382 37.927H64zm0 35.743l-.061.017-15.327-4.14-.979-10.975H33.816l1.928 21.609 28.193 7.826.063-.017z"/>
  <path fill="#fff" d="M63.952 52.455v13.763h16.947l-1.597 17.849-15.35 4.143v14.319l28.215-7.82.207-2.325 3.234-36.233.335-3.696h-3.708zm0-27.856v13.762h33.244l.276-3.092.628-6.978.329-3.692z"/>
  <path fill="#264DE4" d="M64 23.435v13.762H94.979l.276-3.092.628-6.978.329-3.692H64z"/>
  <path fill="#2965F1" d="M64 52.456v13.763h16.947l-1.597 17.849-15.35 4.143v14.319l28.215-7.82.207-2.325 3.234-36.233.335-3.696H64z"/>
  <path fill="#8993BE" d="M64 80l-15.327-4.14-.979-10.975H33.816l1.928 21.609L64 94.32V80z"/>
  <path fill="#6181B6" d="M64 80v14.32l28.215-7.82.207-2.325 3.234-36.233.335-3.696H64V80z"/>
</svg>
